<?xml version="1.0" encoding="UTF-8" standalone="no"?>
<svg
   viewBox="0 0 512 512"
   version="1.1"
   id="svg4"
   sodipodi:docname="question-mark.svg"
   inkscape:version="1.2 (dc2aedaf03, 2022-05-15)"
   xmlns:inkscape="http://www.inkscape.org/namespaces/inkscape"
   xmlns:sodipodi="http://sodipodi.sourceforge.net/DTD/sodipodi-0.dtd"
   xmlns="http://www.w3.org/2000/svg"
   xmlns:svg="http://www.w3.org/2000/svg">
  <defs
     id="defs8" />
  <sodipodi:namedview
     id="namedview6"
     pagecolor="#ffffff"
     bordercolor="#666666"
     borderopacity="1.0"
     inkscape:showpageshadow="2"
     inkscape:pageopacity="0.0"
     inkscape:pagecheckerboard="0"
     inkscape:deskcolor="#d1d1d1"
     showgrid="false"
     inkscape:zoom="2.0058594"
     inkscape:cx="256.74781"
     inkscape:cy="256.74781"
     inkscape:window-width="2533"
     inkscape:window-height="1211"
     inkscape:window-x="42"
     inkscape:window-y="313"
     inkscape:window-maximized="0"
     inkscape:current-layer="svg4" />
  <!--! Font Awesome Pro 6.2.0 by @fontawesome - https://fontawesome.com License - https://fontawesome.com/license (Commercial License) Copyright 2022 Fonticons, Inc. -->
  <path
     d="M256 0C114.6 0 0 114.6 0 256s114.6 256 256 256s256-114.6 256-256S397.4 0 256 0zM256 464c-114.7 0-208-93.31-208-208S141.3 48 256 48s208 93.31 208 208S370.7 464 256 464zM256 336c-18 0-32 14-32 32s13.1 32 32 32c17.1 0 32-14 32-32S273.1 336 256 336zM289.1 128h-51.1C199 128 168 159 168 198c0 13 11 24 24 24s24-11 24-24C216 186 225.1 176 237.1 176h51.1C301.1 176 312 186 312 198c0 8-4 14.1-11 18.1L244 251C236 256 232 264 232 272V288c0 13 11 24 24 24S280 301 280 288V286l45.1-28c21-13 34-36 34-60C360 159 329 128 289.1 128z"
     id="path2"
     style="fill:#000080" />
</svg>
